<svg xmlns="http://www.w3.org/2000/svg" viewBox="0 0 512 512" width="512" height="512">
  <rect width="512" height="512" rx="96" fill="#09090B"/>
  <g transform="translate(256,280)">
    <!-- Outer flame -->
    <path d="M0,-200 C60,-140 120,-60 120,20 C120,90 70,160 0,160 C-70,160 -120,90 -120,20 C-120,-60 -60,-140 0,-200Z" fill="#E8501A"/>
    <!-- Inner flame highlight -->
    <path d="M0,-120 C35,-80 70,-30 70,20 C70,60 40,100 0,100 C-40,100 -70,60 -70,20 C-70,-30 -35,-80 0,-120Z" fill="#F97316"/>
    <!-- Core glow -->
    <path d="M0,-50 C18,-30 35,-5 35,20 C35,42 20,60 0,60 C-20,60 -35,42 -35,20 C-35,-5 -18,-30 0,-50Z" fill="#FDBA74"/>
  </g>
  <!-- Anvil base -->
  <rect x="136" y="400" width="240" height="32" rx="8" fill="#E8501A"/>
  <rect x="156" y="384" width="200" height="24" rx="6" fill="#E8501A"/>
</svg>
